<!--?xml version="1.0" encoding="utf-8"?-->
<!-- Svg Vector Icons : http://www.onlinewebfonts.com/icon -->

<svg version="1.1" xmlns="http://www.w3.org/2000/svg" xmlns:xlink="http://www.w3.org/1999/xlink" x="0px" y="0px" viewBox="0 0 256 256" enable-background="new 0 0 256 256" xml:space="preserve">
<metadata> Svg Vector Icons : http://www.onlinewebfonts.com/icon </metadata>
<g><g><g><path fill="#313237" data-title="Layer 0" xs="0" d="M184.5,16.2c-8.7,1.1-19.1,5.3-25.7,10.4c-4.1,3.1-10.2,9.5-12.7,13.3c-3.1,4.6-6.2,11.7-7.4,16.7c-0.6,2.5-1.2,4.8-1.3,5.1c-0.1,0.5-8.3,0.7-38.4,0.7c-21.5,0-39.1,0.3-40.3,0.5c-1.1,0.3-2.1,0.4-2.2,0.3c-0.1-0.1-0.6-4.5-1.2-9.8c-1.1-10.3-1.5-11.7-4.1-13.7c-1.4-1-2.1-1.1-18.2-1.2c-15.8-0.2-16.9-0.1-19,0.9c-1.9,0.8-2.5,1.5-3.3,3.4c-1.7,3.8-0.7,7.2,2.7,9.2c1.5,0.9,2.6,1,14.3,1c9.7,0,12.7,0.1,12.9,0.6c0.1,0.4,2.7,25.5,5.8,55.8c3.1,30.3,5.8,56.1,6.1,57.2c0.7,2.7,2.5,6.1,4.3,8.2l1.5,1.7l-1.2,3c-1.2,2.9-1.2,3.4-1,13.8c0.1,10.7,0.1,10.9,1.6,13.7c0.8,1.7,2.5,3.8,3.9,5.1l2.5,2.2v3.3c0,3.7,1.3,8.3,3.2,11.5c1.9,3.2,6.4,7.3,10.1,9c14.2,6.7,30.6-2.1,33.1-17.7l0.5-3.5H125h14.1l0.3,1.9c0.7,4.2,1.4,6.6,2.9,9.4c7.3,13.7,25.9,16.4,37,5.3c6.4-6.4,8.5-15.6,5.6-24.2c-2.8-8.1-9.9-14-18.7-15.4c-6.7-1.2-14.1,1.2-19.2,6l-2.7,2.5h-19.2H106l-2.6-2.5c-3.3-3.1-6.9-4.9-11.5-5.9c-7-1.5-13.3,0.2-20,5.3l-1.4,1.1v-7.7c0-6.2,0.1-7.9,0.8-8.8l0.8-1.1h56.3c61.8,0,59.4,0.1,65.7-3.1c3.9-2,9.3-7.3,11-10.7c0.7-1.4,5.2-14.1,9.9-28.3l8.7-25.8l5.6-5.6c3.1-3.1,6.6-7,7.7-8.8c7.6-11.7,10.5-25.2,8.3-38.6C241.5,38.3,223,20,199.4,16.4C194.2,15.6,189.5,15.6,184.5,16.2z M201.7,30.9c13.8,3.8,24.9,14.7,28.9,28.7c1.5,5.1,1.6,15.7,0.3,20.7c-3.9,14.2-15.2,25.6-29.4,29.4c-4.5,1.3-15.5,1.3-20.1,0c-14.2-3.9-25.5-15.1-29.4-29.4c-1.3-4.5-1.3-15.5,0-20.1c4.1-15.1,16.2-26.6,31.4-29.8C187.5,29.6,197.6,29.8,201.7,30.9z M137.7,80.2c1.1,6.6,4.4,14.4,8.5,20.7c2.7,4.1,9.6,11.1,13.9,14c12.2,8.4,27.3,11.7,41.5,9c1.6-0.4,3-0.5,3.1-0.4c0.3,0.3-11.9,36.3-13,38.5c-0.5,0.8-1.7,2.2-2.7,3c-3.9,3.2-1.4,3.1-62.4,3l-55.4-0.1l-1.6-1.1c-3.2-2.3-2.9-0.6-7.5-45.1c-3.8-37.4-4.2-41.6-3.5-42.8c0.4-0.8,1-1.5,1.4-1.7c0.4-0.2,17.9-0.3,38.8-0.3l38.2-0.1L137.7,80.2z M91.8,209.3c4.9,3.4,5.2,10.8,0.5,14.3c-2.3,1.8-6.7,2.2-9.4,0.9c-3.3-1.6-5.3-6-4.6-10c0.4-2.1,2.9-5.1,5.1-6.1C85.5,207.4,89.6,207.9,91.8,209.3z M167.5,209.5c5.3,4,4.9,11.7-0.9,14.9c-4.1,2.3-10.1,0.5-12.1-3.7c-1.7-3.5-0.7-8.5,2.2-10.8C159.8,207.4,164.6,207.2,167.5,209.5z"/><path fill="#313237" data-title="Layer 1" xs="1" d="M203.7,50.3c-2.2,0.6-3.3,1.9-10.5,12.5c-3.5,5.1-6.5,9.3-6.7,9.4c-0.2,0.1-1.6-1.1-3.1-2.4c-4.5-4.1-8-4.4-11.3-1c-1.8,1.8-2.3,5.6-1.1,7.8c1.2,2.3,12.4,13.1,14,13.5c2.2,0.6,5.4-0.1,6.7-1.4c1.1-1,6.3-8.4,18.4-26.1c2-2.9,2.4-3.8,2.4-5.9c0-2.1-0.3-2.8-1.6-4.2c-0.9-1-2.4-2-3.4-2.3C205.4,49.7,205.7,49.7,203.7,50.3z"/></g></g></g>
</svg>